<?xml version="1.0" standalone="no"?>
<!DOCTYPE svg PUBLIC "-//W3C//DTD SVG 20010904//EN"
 "http://www.w3.org/TR/2001/REC-SVG-20010904/DTD/svg10.dtd">
<svg version="1.0" xmlns="http://www.w3.org/2000/svg"
 width="863.000000pt" height="863.000000pt" viewBox="0 0 863.000000 863.000000"
 preserveAspectRatio="xMidYMid meet">
<metadata>
Created by potrace 1.11, written by Peter Selinger 2001-2013
</metadata>
<g transform="translate(0.000000,863.000000) scale(0.100000,-0.100000)"
fill="#000000" stroke="none">
<path d="M2177 6632 l-1997 -1997 95 -95 95 -95 -95 -95 -95 -95 2128 -2128
2127 -2127 1998 1998 1997 1997 -95 95 -95 95 95 95 95 95 -2128 2128 -2127
2127 -1998 -1998z m6031 -2310 l-53 -52 -1990 1990 -1990 1990 -1860 -1860
-1860 -1860 -53 52 -52 53 1912 1912 1913 1913 2042 -2042 2043 -2043 -52 -53z
m-1955 -1954 l-1818 -1818 -1947 1947 -1948 1948 1817 1817 1818 1818 1947
-1947 1948 -1948 -1817 -1817z m42 -128 l1860 1860 53 -52 52 -53 -1912 -1912
-1913 -1913 -2042 2042 -2043 2043 52 53 53 52 1990 -1990 1990 -1990 1860
1860z"/>
<path d="M2720 5656 c-98 -30 -152 -71 -187 -144 -27 -55 -24 -174 5 -229 47
-89 115 -128 213 -121 36 3 76 12 87 20 20 14 20 15 -15 42 -98 79 -95 237 7
288 35 18 103 18 425 3 79 -4 77 -3 68 -17 -4 -7 -8 -452 -8 -988 -1 -536 -5
-1004 -9 -1040 -10 -80 -46 -189 -79 -239 -53 -80 -168 -128 -284 -117 -156
15 -257 124 -256 280 0 39 7 90 15 114 14 38 14 44 1 57 -23 23 -44 31 -91 34
-64 4 -126 -30 -160 -87 -24 -42 -27 -56 -26 -137 0 -70 5 -101 22 -139 50
-111 139 -185 279 -232 142 -47 391 -41 531 14 186 72 299 222 348 462 7 37
12 507 16 1553 l3 628 -75 -7 c-78 -6 -322 -6 -400 1 -158 13 -388 14 -430 1z"/>
<path d="M4378 5640 c-52 -16 -109 -53 -103 -69 8 -21 24 -92 30 -137 12 -89
16 -361 18 -1330 l2 -1021 28 -36 c50 -66 120 -85 212 -59 75 21 108 48 100
81 -21 88 -25 114 -32 186 -4 44 -7 296 -8 560 l0 480 610 3 611 2 3 -596 c2
-505 5 -602 17 -634 40 -100 182 -123 301 -49 29 18 31 22 21 55 -35 127 -36
184 -37 1322 -2 1207 0 1161 -52 1208 -29 26 -81 44 -124 44 -42 0 -125 -26
-153 -48 -22 -17 -23 -22 -13 -58 6 -21 13 -56 16 -76 3 -21 8 -55 11 -75 4
-21 8 -235 9 -476 l2 -437 -611 2 -611 3 -1 520 c0 353 -4 528 -12 546 -32 79
-137 118 -234 89z"/>
</g>
</svg>
